<svg width="32" height="32" viewBox="0 0 32 32" fill="none" xmlns="http://www.w3.org/2000/svg">
<rect y="3.19922" width="32" height="28.8" rx="3" fill="#014751"/>
<path d="M0 6.19922C0 4.54236 1.34315 3.19922 3 3.19922H29C30.6569 3.19922 32 4.54236 32 6.19922V12.7992H0V6.19922Z" fill="#64DB9B"/>
<path fill-rule="evenodd" clip-rule="evenodd" d="M7.99844 0C8.88209 0 9.59844 0.716344 9.59844 1.6V4.8C9.59844 5.68366 8.88209 6.4 7.99844 6.4C7.11478 6.4 6.39844 5.68366 6.39844 4.8V1.6C6.39844 0.716344 7.11478 0 7.99844 0Z" fill="#014751"/>
<path fill-rule="evenodd" clip-rule="evenodd" d="M23.9984 0C24.8821 0 25.5984 0.716344 25.5984 1.6V4.8C25.5984 5.68366 24.8821 6.4 23.9984 6.4C23.1148 6.4 22.3984 5.68366 22.3984 4.8V1.6C22.3984 0.716344 23.1148 0 23.9984 0Z" fill="#014751"/>
</svg>
