<svg width="32" height="32" viewBox="0 0 32 32" fill="none" xmlns="http://www.w3.org/2000/svg">
<path d="M2 9.40039C2 7.74354 3.34315 6.40039 5 6.40039H18.3574C19.153 6.40039 19.9161 6.71646 20.4787 7.27907L23.5213 10.3217C24.0839 10.8843 24.4 11.6474 24.4 12.443V29.0004C24.4 30.6572 23.0569 32.0004 21.4 32.0004H5C3.34314 32.0004 2 30.6572 2 29.0004V9.40039Z" fill="#64DB9B"/>
<path d="M8.39844 3C8.39844 1.34315 9.74158 0 11.3984 0H23.1558C23.9514 0 24.7145 0.316071 25.2771 0.87868L29.9198 5.52132C30.4824 6.08393 30.7984 6.84699 30.7984 7.64264V22.6C30.7984 24.2569 29.4553 25.6 27.7984 25.6H11.3984C9.74158 25.6 8.39844 24.2569 8.39844 22.6V3Z" fill="#014751"/>
<path d="M22.8008 6V0H23.1581C23.9538 0 24.7169 0.316071 25.2795 0.87868L29.9221 5.52132C30.4847 6.08393 30.8008 6.84699 30.8008 7.64264V8H24.8008C23.6962 8 22.8008 7.10457 22.8008 6Z" fill="#64DB9B"/>
</svg>
