<svg width="32" height="32" viewBox="0 0 32 32" fill="none" xmlns="http://www.w3.org/2000/svg">
<path d="M25.8016 19.8957C27.4819 17.7996 28.487 15.1389 28.487 12.2435C28.487 5.48159 23.0054 0 16.2435 0C9.48159 0 4 5.48159 4 12.2435C4 15.1389 5.00506 17.7996 6.68535 19.8957L6.69526 19.908C6.69526 19.908 11.5677 26.4314 14.912 30.4472C15.6098 31.2851 16.8775 31.2852 17.5757 30.4477C20.932 26.4215 25.8087 19.8957 25.8087 19.8957H25.8016Z" fill="#014751"/>
<path fill-rule="evenodd" clip-rule="evenodd" d="M16.2433 16.762C18.768 16.762 20.8147 14.7153 20.8147 12.1906C20.8147 9.66584 18.768 7.61914 16.2433 7.61914C13.7186 7.61914 11.6719 9.66584 11.6719 12.1906C11.6719 14.7153 13.7186 16.762 16.2433 16.762Z" fill="#64DB9B"/>
</svg>
