<svg width="32" height="29" viewBox="0 0 32 29" fill="none" xmlns="http://www.w3.org/2000/svg">
<circle cx="19.2008" cy="6.4" r="6.4" fill="#64DB9B"/>
<path d="M15.9984 16C10.6965 16 6.39844 20.2981 6.39844 25.6C6.39844 27.3673 7.83113 28.8 9.59844 28.8H28.7984C30.5657 28.8 31.9984 27.3673 31.9984 25.6V24C31.9984 19.5817 28.4167 16 23.9984 16H15.9984Z" fill="#64DB9B"/>
<path d="M8 16C3.58172 16 0 19.5817 0 24V25.6C0 27.3673 1.43269 28.8 3.2 28.8H22.4C24.1673 28.8 25.6 27.3673 25.6 25.6V24C25.6 19.5817 22.0183 16 17.6 16H8Z" fill="#014751"/>
<circle cx="12.7984" cy="6.4" r="6.4" fill="#014751"/>
</svg>
